<?xml version="1.0" encoding="UTF-8"?>
<!DOCTYPE svg PUBLIC "-//W3C//DTD SVG 1.1//EN" "http://www.w3.org/Graphics/SVG/1.1/DTD/svg11.dtd">
<svg xmlns="http://www.w3.org/2000/svg" version="1.1" width="203px" height="238px" style="shape-rendering:geometricPrecision; text-rendering:geometricPrecision; image-rendering:optimizeQuality; fill-rule:evenodd; clip-rule:evenodd" xmlns:xlink="http://www.w3.org/1999/xlink">
<g><path style="opacity:1" fill="#ffffff" d="M -0.5,-0.5 C 67.1667,-0.5 134.833,-0.5 202.5,-0.5C 202.5,78.8333 202.5,158.167 202.5,237.5C 134.833,237.5 67.1667,237.5 -0.5,237.5C -0.5,158.167 -0.5,78.8333 -0.5,-0.5 Z"/></g>
<g><path style="opacity:1" fill="#3373fe" d="M 154.5,140.5 C 154.167,140.5 153.833,140.5 153.5,140.5C 166.829,126.885 174.829,110.552 177.5,91.5C 178.165,88.0159 178.499,84.3492 178.5,80.5C 178.651,74.5915 177.984,68.9248 176.5,63.5C 172.081,39.918 158.414,24.7514 135.5,18C 126.893,16.7956 118.559,17.7956 110.5,21C 105.021,23.7394 99.6878,26.4061 94.5,29C 103.935,20.9456 114.602,14.9456 126.5,11C 149.553,5.89686 167.053,13.3969 179,33.5C 188.814,54.2384 190.147,75.5717 183,97.5C 177.23,114.412 167.73,128.746 154.5,140.5 Z"/></g>
<g><path style="opacity:1" fill="#3573fd" d="M 46.5,132.5 C 22.322,119.492 10.4887,99.1587 11,71.5C 15.9245,46.5904 31.0912,35.4237 56.5,38C 61.2677,39.0248 65.9343,40.3582 70.5,42C 41.8629,37.9837 25.0296,50.1503 20,78.5C 19.1818,95.7135 24.5151,110.713 36,123.5C 39.6919,126.365 43.1919,129.365 46.5,132.5 Z"/></g>
<g><path style="opacity:1" fill="#3172fe" d="M 104.5,48.5 C 114.579,49.6517 117.745,54.985 114,64.5C 105.344,70.9268 99.511,68.9268 96.5,58.5C 97.3683,53.6408 100.035,50.3074 104.5,48.5 Z"/></g>
<g><path style="opacity:1" fill="#3172fe" d="M 58.5,47.5 C 81.5398,53.3312 98.7064,66.9979 110,88.5C 116.573,77.784 120.573,66.1174 122,53.5C 128.372,82.3688 120.705,106.702 99,126.5C 102.081,104.821 96.7474,85.4872 83,68.5C 75.844,60.1666 67.6774,53.1666 58.5,47.5 Z"/></g>
<g><path style="opacity:1" fill="#b4cafe" d="M 176.5,63.5 C 177.984,68.9248 178.651,74.5915 178.5,80.5C 178.499,84.3492 178.165,88.0159 177.5,91.5C 177.462,82.1536 177.129,72.8203 176.5,63.5 Z"/></g>
<g><path style="opacity:1" fill="#8ff680" d="M 40.5,80.5 C 56.4471,79.2782 71.4471,82.7782 85.5,91C 94.7479,97.4102 97.5812,105.91 94,116.5C 87.7369,102.222 77.2369,93.0553 62.5,89C 81.1046,98.3484 92.9379,113.182 98,133.5C 101.752,130.371 105.919,127.871 110.5,126C 117.591,125.509 124.591,125.843 131.5,127C 127.242,124.692 122.742,123.192 118,122.5C 113.975,122.965 110.141,123.798 106.5,125C 113.712,116.723 122.045,115.39 131.5,121C 136.5,124.667 140.833,129 144.5,134C 135.788,134.845 127.121,136.012 118.5,137.5C 112.529,137.845 107.529,135.845 103.5,131.5C 101.142,133.024 99.3088,135.024 98,137.5C 97.8253,141.211 97.3253,144.878 96.5,148.5C 95.943,138.923 94.2763,129.59 91.5,120.5C 82.7493,121.718 74.7493,119.885 67.5,115C 58.4747,106.965 51.308,97.4651 46,86.5C 44.383,84.2368 42.5497,82.2368 40.5,80.5 Z"/></g>
<g><path style="opacity:1" fill="#79a2fa" d="M 46.5,132.5 C 49.09,133.128 51.4234,134.295 53.5,136C 50.6641,135.915 48.3307,134.749 46.5,132.5 Z"/></g>
<g><path style="opacity:1" fill="#b2c9fe" d="M 153.5,140.5 C 153.833,140.5 154.167,140.5 154.5,140.5C 153.121,143.073 151.121,144.573 148.5,145C 150.037,143.293 151.704,141.793 153.5,140.5 Z"/></g>
<g><path style="opacity:1" fill="#3473fe" d="M 73.5,157.5 C 73.5,163.5 73.5,169.5 73.5,175.5C 77.7016,175.817 81.7016,175.483 85.5,174.5C 85.5,168.833 85.5,163.167 85.5,157.5C 89.5,157.5 93.5,157.5 97.5,157.5C 97.5,172.833 97.5,188.167 97.5,203.5C 93.5,203.5 89.5,203.5 85.5,203.5C 85.5,197.833 85.5,192.167 85.5,186.5C 81.5,186.5 77.5,186.5 73.5,186.5C 73.5,192.167 73.5,197.833 73.5,203.5C 69.8333,203.5 66.1667,203.5 62.5,203.5C 62.5,188.167 62.5,172.833 62.5,157.5C 66.1667,157.5 69.8333,157.5 73.5,157.5 Z"/></g>
<g><path style="opacity:1" fill="#2d71fe" d="M 150.5,157.5 C 150.5,161.167 150.5,164.833 150.5,168.5C 146.833,168.5 143.167,168.5 139.5,168.5C 139.5,164.833 139.5,161.167 139.5,157.5C 143.167,157.5 146.833,157.5 150.5,157.5 Z"/></g>
<g><path style="opacity:1" fill="#2b71fd" d="M 47.5,157.5 C 51.1667,157.5 54.8333,157.5 58.5,157.5C 58.5,161.167 58.5,164.833 58.5,168.5C 58.5,164.833 58.5,161.167 58.5,157.5C 54.8333,157.5 51.1667,157.5 47.5,157.5 Z"/></g>
<g><path style="opacity:1" fill="#a9c4fe" d="M 73.5,157.5 C 74.4889,162.975 74.8222,168.642 74.5,174.5C 78.1667,174.5 81.8333,174.5 85.5,174.5C 81.7016,175.483 77.7016,175.817 73.5,175.5C 73.5,169.5 73.5,163.5 73.5,157.5 Z"/></g>
<g><path style="opacity:1" fill="#2c70fe" d="M 101.5,157.5 C 109.174,157.334 116.841,157.5 124.5,158C 128,161.5 131.5,165 135,168.5C 135.5,180.162 135.667,191.829 135.5,203.5C 124.167,203.5 112.833,203.5 101.5,203.5C 101.5,188.167 101.5,172.833 101.5,157.5 Z"/></g>
<g><path style="opacity:1" fill="#96b6fd" d="M 47.5,157.5 C 47.5,161.167 47.5,164.833 47.5,168.5C 51.1667,168.5 54.8333,168.5 58.5,168.5C 54.7016,169.483 50.7016,169.817 46.5,169.5C 46.1832,165.298 46.5166,161.298 47.5,157.5 Z"/></g>
<g><path style="opacity:1" fill="#98b8fe" d="M 150.5,157.5 C 151.483,161.298 151.817,165.298 151.5,169.5C 147.298,169.817 143.298,169.483 139.5,168.5C 143.167,168.5 146.833,168.5 150.5,168.5C 150.5,164.833 150.5,161.167 150.5,157.5 Z"/></g>
<g><path style="opacity:1" fill="#fcfdfe" d="M 112.5,169.5 C 116.167,169.5 119.833,169.5 123.5,169.5C 123.5,177.167 123.5,184.833 123.5,192.5C 119.833,192.5 116.167,192.5 112.5,192.5C 112.5,184.833 112.5,177.167 112.5,169.5 Z"/></g>
<g><path style="opacity:1" fill="#9abafe" d="M 112.5,169.5 C 116.298,168.517 120.298,168.183 124.5,168.5C 124.826,176.684 124.492,184.684 123.5,192.5C 123.5,184.833 123.5,177.167 123.5,169.5C 119.833,169.5 116.167,169.5 112.5,169.5 Z"/></g>
<g><path style="opacity:1" fill="#2a6ffe" d="M 47.5,175.5 C 51.1667,175.5 54.8333,175.5 58.5,175.5C 58.5,184.833 58.5,194.167 58.5,203.5C 54.8333,203.5 51.1667,203.5 47.5,203.5C 47.5,194.167 47.5,184.833 47.5,175.5 Z"/></g>
<g><path style="opacity:1" fill="#2b70fe" d="M 139.5,175.5 C 143.167,175.5 146.833,175.5 150.5,175.5C 150.5,184.833 150.5,194.167 150.5,203.5C 146.833,203.5 143.167,203.5 139.5,203.5C 139.5,194.167 139.5,184.833 139.5,175.5 Z"/></g>
<g><path style="opacity:1" fill="#b2c8fd" d="M 101.5,157.5 C 101.5,172.833 101.5,188.167 101.5,203.5C 112.833,203.5 124.167,203.5 135.5,203.5C 124.012,204.495 112.345,204.828 100.5,204.5C 100.17,188.658 100.504,172.991 101.5,157.5 Z"/></g>
<g><path style="opacity:1" fill="#3073f9" d="M 48.5,208.5 C 49.5,208.5 50.5,208.5 51.5,208.5C 51.5,209.5 51.5,210.5 51.5,211.5C 50.5,211.5 49.5,211.5 48.5,211.5C 48.5,210.5 48.5,209.5 48.5,208.5 Z"/></g>
<g><path style="opacity:1" fill="#5281fb" d="M 80.5,208.5 C 81.5,208.5 82.5,208.5 83.5,208.5C 83.4261,212.541 82.0928,213.208 79.5,210.5C 79.8627,209.817 80.1961,209.15 80.5,208.5 Z"/></g>
<g><path style="opacity:1" fill="#abc6f9" d="M 134.5,208.5 C 133.5,208.5 132.5,208.5 131.5,208.5C 131.5,213.5 131.5,218.5 131.5,223.5C 130.512,218.36 130.179,213.026 130.5,207.5C 132.099,207.232 133.432,207.566 134.5,208.5 Z"/></g>
<g><path style="opacity:1" fill="#74a0fe" d="M 57.5,214.5 C 56.7156,213.259 56.049,211.259 55.5,208.5C 54.5059,213.456 54.1725,218.456 54.5,223.5C 53.5119,218.36 53.1786,213.026 53.5,207.5C 54.8333,207.5 56.1667,207.5 57.5,207.5C 57.5,209.833 57.5,212.167 57.5,214.5 Z"/></g>
<g><path style="opacity:1" fill="#2e72fc" d="M 80.5,213.5 C 81.5,213.5 82.5,213.5 83.5,213.5C 83.5,216.833 83.5,220.167 83.5,223.5C 82.5,223.5 81.5,223.5 80.5,223.5C 80.5,220.167 80.5,216.833 80.5,213.5 Z"/></g>
<g><path style="opacity:1" fill="#3674fd" d="M 113.5,226.5 C 115.607,225.532 117.941,225.198 120.5,225.5C 120.719,224.325 120.386,223.325 119.5,222.5C 118.264,223.246 116.93,223.579 115.5,223.5C 114.25,223.423 113.417,222.756 113,221.5C 111.579,217.518 112.746,214.852 116.5,213.5C 118.803,214.529 121.136,214.529 123.5,213.5C 123.666,217.846 123.499,222.179 123,226.5C 119.731,227.818 116.565,227.818 113.5,226.5 Z"/></g>
<g><path style="opacity:1" fill="#3876fd" d="M 144.5,213.5 C 147.167,214.833 149.833,214.833 152.5,213.5C 152.5,214.5 152.5,215.5 152.5,216.5C 150.856,216.286 149.356,216.62 148,217.5C 147.505,219.473 147.338,221.473 147.5,223.5C 146.5,223.5 145.5,223.5 144.5,223.5C 144.5,220.167 144.5,216.833 144.5,213.5 Z"/></g>
<g><path style="opacity:1" fill="#2b70fd" d="M 48.5,213.5 C 49.5,213.5 50.5,213.5 51.5,213.5C 51.5,216.833 51.5,220.167 51.5,223.5C 50.5,223.5 49.5,223.5 48.5,223.5C 48.5,220.167 48.5,216.833 48.5,213.5 Z"/></g>
<g><path style="opacity:1" fill="#4980fb" d="M 103.5,213.5 C 106.272,214.371 108.938,214.371 111.5,213.5C 111.5,214.5 111.5,215.5 111.5,216.5C 110.178,216.33 109.011,216.663 108,217.5C 107.505,219.473 107.338,221.473 107.5,223.5C 106.167,223.5 104.833,223.5 103.5,223.5C 103.5,220.167 103.5,216.833 103.5,213.5 Z"/></g>
<g><path style="opacity:1" fill="#3775fd" d="M 74.5,207.5 C 75.5,207.5 76.5,207.5 77.5,207.5C 77.5,212.833 77.5,218.167 77.5,223.5C 75.2895,222.417 73.1229,222.417 71,223.5C 66.7941,222.472 65.4608,219.805 67,215.5C 69.0749,213.352 71.4082,213.018 74,214.5C 74.4966,212.19 74.6633,209.857 74.5,207.5 Z"/></g>
<g><path style="opacity:1" fill="#2b70fd" d="M 57.5,214.5 C 59.6702,213.232 61.8368,213.232 64,214.5C 64.498,217.482 64.6646,220.482 64.5,223.5C 63.5,223.5 62.5,223.5 61.5,223.5C 61.6633,221.143 61.4966,218.81 61,216.5C 60,215.167 59,215.167 58,216.5C 57.5034,218.81 57.3367,221.143 57.5,223.5C 56.5,223.5 55.5,223.5 54.5,223.5C 54.1725,218.456 54.5059,213.456 55.5,208.5C 56.049,211.259 56.7156,213.259 57.5,214.5 Z"/></g>
<g><path style="opacity:1" fill="#e6edfe" d="M 70.5,216.5 C 71.8333,216.5 73.1667,216.5 74.5,216.5C 74.9899,218.948 74.1566,220.615 72,221.5C 69.3894,220.5 68.8894,218.833 70.5,216.5 Z"/></g>
<g><path style="opacity:1" fill="#e4ebfe" d="M 115.5,216.5 C 117.167,216.5 118.833,216.5 120.5,216.5C 121.169,220.676 119.669,222.009 116,220.5C 115.51,219.207 115.343,217.873 115.5,216.5 Z"/></g>
<g><path style="opacity:1" fill="#3875fd" d="M 93.5,213.5 C 96.9705,212.875 99.8038,213.875 102,216.5C 102.996,221.008 101.163,223.341 96.5,223.5C 91.8487,222.807 90.3487,220.141 92,215.5C 92.7172,214.956 93.2172,214.289 93.5,213.5 Z"/></g>
<g><path style="opacity:1" fill="#ebf1ff" d="M 94.5,216.5 C 95.8333,216.5 97.1667,216.5 98.5,216.5C 98.8841,218.665 98.2174,220.332 96.5,221.5C 94.7826,220.332 94.1159,218.665 94.5,216.5 Z"/></g>
<g><path style="opacity:1" fill="#507ffd" d="M 125.5,220.5 C 126.833,220.5 128.167,220.5 129.5,220.5C 129.5,221.5 129.5,222.5 129.5,223.5C 128.167,223.5 126.833,223.5 125.5,223.5C 125.5,222.5 125.5,221.5 125.5,220.5 Z"/></g>
<g><path style="opacity:1" fill="#4f80fc" d="M 85.5,220.5 C 86.8333,220.5 88.1667,220.5 89.5,220.5C 89.7778,222.346 89.1112,223.68 87.5,224.5C 85.8888,223.68 85.2222,222.346 85.5,220.5 Z"/></g>
<g><path style="opacity:1" fill="#3b77fd" d="M 134.5,208.5 C 134.338,210.527 134.505,212.527 135,214.5C 141.189,212.688 143.523,215.022 142,221.5C 141.044,222.894 139.711,223.561 138,223.5C 135.877,222.417 133.71,222.417 131.5,223.5C 131.5,218.5 131.5,213.5 131.5,208.5C 132.5,208.5 133.5,208.5 134.5,208.5 Z"/></g>
<g><path style="opacity:1" fill="#ecf1fe" d="M 134.5,216.5 C 135.833,216.5 137.167,216.5 138.5,216.5C 138.5,218.167 138.5,219.833 138.5,221.5C 135.09,221.616 133.756,219.95 134.5,216.5 Z"/></g>
<g><path style="opacity:1" fill="#c9d7fd" d="M 113.5,226.5 C 112.957,226.44 112.624,226.107 112.5,225.5C 113.602,224.824 114.602,224.158 115.5,223.5C 116.93,223.579 118.264,223.246 119.5,222.5C 120.386,223.325 120.719,224.325 120.5,225.5C 117.941,225.198 115.607,225.532 113.5,226.5 Z"/></g>
</svg>
